<svg width="64" height="64" viewBox="0 0 64 64" fill="none" xmlns="http://www.w3.org/2000/svg">
<path d="M10.3184 42.957C15.2957 42.957 19.3306 35.5597 19.3306 26.4346C19.3306 17.3096 15.2957 9.91225 10.3184 9.91225C5.34104 9.91225 1.30612 17.3096 1.30612 26.4346C1.30612 35.5597 5.34104 42.957 10.3184 42.957Z" fill="#1EB415"/>
<path d="M53.6815 42.957C58.6588 42.957 62.6937 35.5597 62.6937 26.4346C62.6937 17.3096 58.6588 9.91225 53.6815 9.91225C48.7042 9.91225 44.6693 17.3096 44.6693 26.4346C44.6693 35.5597 48.7042 42.957 53.6815 42.957Z" fill="#1EB415"/>
<path d="M31.9999 42.957C36.9772 42.957 41.0121 35.5597 41.0121 26.4346C41.0121 17.3096 36.9772 9.91225 31.9999 9.91225C27.0225 9.91225 22.9876 17.3096 22.9876 26.4346C22.9876 35.5597 27.0225 42.957 31.9999 42.957Z" fill="#1EB415"/>
<path d="M44.3631 49.1214C43.0022 49.1214 41.7692 49.6691 40.8719 50.5565C40.8576 50.5561 40.8432 50.5539 40.8287 50.5539C38.877 50.5539 37.2946 52.1366 37.2946 54.088H49.3294C49.3295 51.3454 47.1057 49.1214 44.3631 49.1214Z" fill="#1EB415"/>
<path d="M20.7185 49.1214C19.3576 49.1214 18.1246 49.6691 17.2272 50.5565C17.213 50.5561 17.1986 50.5539 17.1841 50.5539C15.2324 50.5539 13.65 52.1366 13.65 54.088H25.6847C25.6847 51.3454 23.461 49.1214 20.7185 49.1214Z" fill="#90DE3F"/>
<path d="M25.8259 47.9295C24.3686 47.9295 23.0306 48.4366 21.9761 49.2826C24.1097 49.8395 25.6846 51.7799 25.6846 54.0881H31.9842C31.9845 50.6871 29.2276 47.9295 25.8259 47.9295Z" fill="#1EB415"/>
<path d="M55.6493 52.782H54.9879V44.127C60.1354 43.0498 64 35.6659 64 26.4344C64 16.4371 59.4676 8.60588 53.6816 8.60588C47.8956 8.60588 43.3633 16.4371 43.3633 26.4344C43.3633 35.6659 47.2279 43.0498 52.3755 44.1271V52.7821H50.4979C49.8952 49.9483 47.374 47.8155 44.3631 47.8155C42.8787 47.8155 41.4706 48.3294 40.3445 49.2721C38.3433 49.4719 36.698 50.8961 36.1686 52.7823H33.3061V44.1273C38.4536 43.05 42.3184 35.6661 42.3184 26.4345C42.3184 16.4373 37.786 8.60601 32 8.60601C26.214 8.60601 21.6816 16.4373 21.6816 26.4345C21.6816 35.666 25.5462 43.0499 30.6939 44.1273V48.4363C29.3857 47.308 27.6849 46.6235 25.826 46.6235C24.3476 46.6235 22.8949 47.0689 21.6717 47.8879C21.3609 47.8404 21.0426 47.8155 20.7184 47.8155C19.234 47.8155 17.8259 48.3294 16.6998 49.2721C14.6984 49.4719 13.0533 50.8961 12.5239 52.7823H11.6246V44.1273C16.7721 43.05 20.6369 35.6661 20.6369 26.4345C20.6369 16.4373 16.1045 8.60601 10.3185 8.60601C4.5325 8.60601 0 16.4369 0 26.4343C0 35.6658 3.86462 43.0496 9.01225 44.127V52.782H7.619C6.89775 52.782 6.31287 53.3669 6.31287 54.0881C6.31287 54.8095 6.89775 55.3943 7.619 55.3943H55.6493C56.3705 55.3943 56.9554 54.8095 56.9554 54.0881C56.9552 53.3668 56.3704 52.782 55.6493 52.782ZM45.9755 26.4344C45.9755 18.1864 49.5044 11.2181 53.6816 11.2181C57.8587 11.2181 61.3877 18.1864 61.3877 26.4344C61.3877 33.8059 58.5689 40.1545 54.9878 41.4206V30.5515L59.5622 25.9771C60.0722 25.4671 60.0722 24.6401 59.5622 24.1299C59.0522 23.62 58.2255 23.62 57.715 24.1299L54.9876 26.8571V22.7411C54.9876 22.0199 54.4027 21.435 53.6815 21.435C52.9601 21.435 52.3754 22.0199 52.3754 22.7411V41.4206C48.7944 40.1545 45.9755 33.806 45.9755 26.4344ZM2.61225 26.4344C2.61225 18.1864 6.14125 11.2181 10.3184 11.2181C14.4955 11.2181 18.0245 18.1864 18.0245 26.4344C18.0245 33.8059 15.2056 40.1545 11.6245 41.4206V30.5515L16.199 25.9771C16.709 25.4671 16.709 24.6401 16.199 24.1299C15.689 23.62 14.8621 23.62 14.3518 24.1299L11.6245 26.8574V22.7413C11.6245 22.02 11.0396 21.4351 10.3184 21.4351C9.59713 21.4351 9.01225 22.02 9.01225 22.7413V41.4208C5.43112 40.1545 2.61225 33.806 2.61225 26.4344ZM40.7938 51.8605C40.8081 51.8613 40.8226 51.8621 40.837 51.8624C41.1943 51.8708 41.5373 51.7359 41.7904 51.4854C42.4801 50.8033 43.3939 50.4275 44.3631 50.4275C45.9214 50.4275 47.2545 51.4069 47.7816 52.7819H39.0279C39.4268 52.2335 40.0679 51.8718 40.7938 51.8605ZM24.2939 26.4344C24.2939 18.1864 27.8229 11.2181 32 11.2181C36.1771 11.2181 39.7061 18.1864 39.7061 26.4344C39.7061 33.8059 36.8872 40.1545 33.3061 41.4206V30.5515L37.8806 25.9771C38.3906 25.4671 38.3906 24.6401 37.8806 24.1299C37.3708 23.62 36.544 23.62 36.0334 24.1299L33.3061 26.8574V22.7413C33.3061 22.02 32.7214 21.4351 32 21.4351C31.2786 21.4351 30.6939 22.02 30.6939 22.7413V41.4208C27.1127 40.1545 24.2939 33.806 24.2939 26.4344ZM25.8259 49.2356C28.049 49.2356 29.9265 50.739 30.4982 52.782H26.853C26.5631 51.4194 25.8295 50.22 24.8113 49.3408C25.141 49.2713 25.4802 49.2356 25.8259 49.2356ZM17.1491 51.8605C17.1635 51.8613 17.178 51.8621 17.1924 51.8624C17.5515 51.8708 17.8926 51.7359 18.1458 51.4854C18.8355 50.8033 19.7493 50.4275 20.7185 50.4275C22.2769 50.4275 23.6099 51.4069 24.137 52.7819H15.3833C15.7821 52.2335 16.423 51.8718 17.1491 51.8605Z" fill="black"/>
<path d="M3.17812 52.782H1.30613C0.58475 52.782 0 53.367 0 54.0881C0 54.8095 0.58475 55.3942 1.30613 55.3942H3.17812C3.89937 55.3942 4.48425 54.8095 4.48425 54.0881C4.48425 53.3667 3.89937 52.782 3.17812 52.782Z" fill="black"/>
<path d="M62.6937 52.782H60.09C59.3686 52.782 58.7839 53.3669 58.7839 54.0881C58.7839 54.8095 59.3686 55.3942 60.09 55.3942H62.6937C63.415 55.3942 63.9999 54.8095 63.9999 54.0881C63.9999 53.3667 63.415 52.782 62.6937 52.782Z" fill="black"/>
<path d="M28.9518 16.1445C28.2729 15.9015 27.525 16.2548 27.2819 16.9338C26.9805 17.7749 26.7185 18.6654 26.5026 19.5805C26.337 20.2825 26.7721 20.986 27.4741 21.1514C27.5749 21.1753 27.6756 21.1866 27.775 21.1866C28.3669 21.1866 28.9034 20.7813 29.0453 20.18C29.2385 19.3599 29.4728 18.564 29.741 17.8148C29.9843 17.1355 29.6309 16.3879 28.9518 16.1445Z" fill="black"/>
<path d="M28.343 26.4344C28.343 25.7582 28.3665 25.0776 28.4129 24.4119C28.463 23.6922 27.9204 23.0682 27.2007 23.0181C26.4786 22.9671 25.8571 23.5106 25.807 24.2302C25.7564 24.9564 25.7307 25.6979 25.7307 26.4345C25.7307 29.5005 26.1765 32.5184 27.0201 35.1621C27.1972 35.7172 27.7107 36.0716 28.2641 36.0716C28.3957 36.0716 28.5295 36.0515 28.6616 36.0094C29.3487 35.7902 29.7282 35.0552 29.5087 34.3681C28.7461 31.9776 28.343 29.2342 28.343 26.4344Z" fill="black"/>
<path d="M7.27013 16.1445C6.591 15.9015 5.8435 16.2548 5.60025 16.9338C5.29888 17.7749 5.03688 18.6654 4.821 19.5805C4.6555 20.2825 5.09063 20.986 5.79263 21.1514C5.89338 21.1753 5.99413 21.1866 6.0935 21.1866C6.68538 21.1866 7.22188 20.7813 7.36375 20.18C7.557 19.3599 7.79113 18.564 8.0595 17.8148C8.30262 17.1355 7.94925 16.3879 7.27013 16.1445Z" fill="black"/>
<path d="M6.66149 26.4344C6.66149 25.7582 6.68499 25.0776 6.73136 24.4119C6.78149 23.6922 6.23874 23.0682 5.51924 23.0181C4.79649 22.9671 4.17562 23.5106 4.12549 24.2302C4.07487 24.9564 4.04924 25.6979 4.04924 26.4345C4.04924 29.5005 4.49499 32.5184 5.33861 35.1621C5.51561 35.7172 6.02924 36.0716 6.58249 36.0716C6.71411 36.0716 6.84786 36.0515 6.97999 36.0094C7.66711 35.7902 8.04661 35.0552 7.82711 34.3681C7.06449 31.9776 6.66149 29.2342 6.66149 26.4344Z" fill="black"/>
<path d="M50.6334 16.1445C49.9543 15.9015 49.2068 16.2548 48.9635 16.9338C48.6621 17.7749 48.4001 18.6654 48.1843 19.5805C48.0186 20.2825 48.4538 20.986 49.1558 21.1514C49.2566 21.1753 49.3573 21.1866 49.4566 21.1866C50.0485 21.1866 50.585 20.7813 50.7269 20.18C50.9201 19.3599 51.1543 18.564 51.4226 17.8148C51.6659 17.1355 51.3126 16.3879 50.6334 16.1445Z" fill="black"/>
<path d="M50.0248 26.4344C50.0248 25.7582 50.0483 25.0776 50.0946 24.4119C50.1448 23.6922 49.6021 23.0682 48.8825 23.0181C48.158 22.9671 47.5388 23.5106 47.4888 24.2302C47.4381 24.9564 47.4125 25.6979 47.4125 26.4345C47.4125 29.5005 47.8583 32.5184 48.7019 35.1621C48.8789 35.7172 49.3925 36.0716 49.9458 36.0716C50.0774 36.0716 50.2111 36.0515 50.3433 36.0094C51.0304 35.7902 51.4099 35.0552 51.1904 34.3681C50.4279 31.9776 50.0248 29.2342 50.0248 26.4344Z" fill="black"/>
</svg>
